<?xml version="1.0" encoding="UTF-8" standalone="no"?>
<!-- Created with Inkscape (http://www.inkscape.org/) -->

<svg
   width="32px"
   height="32px"
   viewBox="0 0 32 32"
   version="1.1"
   id="SVGRoot"
   inkscape:version="1.2.2 (b0a8486541, 2022-12-01)"
   sodipodi:docname="vampire-bite.svg"
   inkscape:export-filename="vampire-bite.svg.192dpi.png"
   inkscape:export-xdpi="192"
   inkscape:export-ydpi="192"
   xmlns:inkscape="http://www.inkscape.org/namespaces/inkscape"
   xmlns:sodipodi="http://sodipodi.sourceforge.net/DTD/sodipodi-0.dtd"
   xmlns="http://www.w3.org/2000/svg"
   xmlns:svg="http://www.w3.org/2000/svg"
   xmlns:rdf="http://www.w3.org/1999/02/22-rdf-syntax-ns#"
   xmlns:cc="http://creativecommons.org/ns#"
   xmlns:dc="http://purl.org/dc/elements/1.1/">
  <defs
     id="defs3713" />
  <sodipodi:namedview
     id="base"
     pagecolor="#000000"
     bordercolor="#666666"
     borderopacity="1.0"
     inkscape:pageopacity="0"
     inkscape:pageshadow="2"
     inkscape:zoom="4"
     inkscape:cx="-8.625"
     inkscape:cy="-0.75"
     inkscape:document-units="px"
     inkscape:current-layer="layer2"
     showgrid="true"
     inkscape:window-width="1920"
     inkscape:window-height="1002"
     inkscape:window-x="0"
     inkscape:window-y="0"
     inkscape:window-maximized="1"
     inkscape:grid-bbox="true"
     inkscape:pagecheckerboard="true"
     inkscape:showpageshadow="2"
     inkscape:deskcolor="#000000">
    <inkscape:grid
       type="xygrid"
       id="grid3726"
       spacingx="1"
       spacingy="1"
       empspacing="4" />
  </sodipodi:namedview>
  <metadata
     id="metadata3716">
    <rdf:RDF>
      <cc:Work
         rdf:about="">
        <dc:format>image/svg+xml</dc:format>
        <dc:type
           rdf:resource="http://purl.org/dc/dcmitype/StillImage" />
        <cc:license
           rdf:resource="http://creativecommons.org/publicdomain/zero/1.0/" />
        <dc:creator>
          <cc:Agent>
            <dc:title />
          </cc:Agent>
        </dc:creator>
        <dc:contributor>
          <cc:Agent>
            <dc:title />
          </cc:Agent>
        </dc:contributor>
      </cc:Work>
      <cc:License
         rdf:about="http://creativecommons.org/publicdomain/zero/1.0/">
        <cc:permits
           rdf:resource="http://creativecommons.org/ns#Reproduction" />
        <cc:permits
           rdf:resource="http://creativecommons.org/ns#Distribution" />
        <cc:permits
           rdf:resource="http://creativecommons.org/ns#DerivativeWorks" />
      </cc:License>
    </rdf:RDF>
  </metadata>
  <g
     inkscape:groupmode="layer"
     id="layer2"
     inkscape:label="Background">
    <g
       id="g7544"
       transform="matrix(0.3094033,0,0,0.3094033,83.456614,17.14832)"
       style="display:inline;stroke-width:3.23202;fill:#ff0000;fill-opacity:1"
       inkscape:label="2"
       inkscape:export-filename="./g7544.png"
       inkscape:export-xdpi="192"
       inkscape:export-ydpi="192">
      <path
         style="fill:#ff0000;stroke-width:24.4311;stroke-linecap:round;stroke-linejoin:round;stroke-dashoffset:3.77953;paint-order:stroke fill markers;fill-opacity:1"
         d="m -186.95355,-20.904742 c -1.24602,-6.584703 5.2695,-11.506185 11.26733,-8.360984 5.99783,3.145201 5.01716,10.579998 3.87532,18.514008 -2.15824,14.9970816 -13.95055,24.035661 -13.95055,24.035661 0,0 1.94569,-17.6081316 -1.1921,-34.188685 z"
         id="path4753-3"
         sodipodi:nodetypes="szscs" />
      <g
         id="g7531"
         style="stroke-width:3.23202;fill:#ff0000;fill-opacity:1">
        <path
           style="fill:#ff0000;stroke-width:24.4312;stroke-linecap:round;stroke-linejoin:round;stroke-dashoffset:3.77953;paint-order:stroke fill markers;fill-opacity:1"
           d="m -246.627,-38.94191 c -0.53262,2.273666 -0.52408,7.657626 0.47325,9.369482 1.20623,2.070218 8.10681,1.329859 9.06717,-0.531059 0.96083,-1.861849 0.26827,-7.716932 -0.774,-10.160735 -1.04207,-2.443837 -8.01313,-1.893497 -8.76642,1.322312 z"
           id="path4755-6"
           sodipodi:nodetypes="ssszs" />
        <path
           style="fill:#ff0000;stroke-width:24.4311;stroke-linecap:round;stroke-linejoin:round;stroke-dashoffset:3.77953;paint-order:stroke fill markers;fill-opacity:1"
           d="m -231.39472,-31.723126 c 1.22418,2.069751 9.36735,2.045052 10.34148,-0.202119 1.19319,-2.752665 0.8101,-10.202256 -0.12334,-12.415718 -0.93323,-2.213495 -9.07564,-3.343928 -10.69711,0.793414 -0.90368,2.305812 -0.87506,9.535565 0.4788,11.824589 z"
           id="path4757-7"
           sodipodi:nodetypes="sszss" />
        <path
           style="fill:#ff0000;stroke-width:24.4311;stroke-linecap:round;stroke-linejoin:round;stroke-dashoffset:3.77953;paint-order:stroke fill markers;fill-opacity:1"
           d="m -189.41624,-38.94191 c 0.53263,2.273666 0.52412,7.657593 -0.47328,9.369516 -1.20619,2.070184 -8.10681,1.329825 -9.06713,-0.531093 -0.9608,-1.861849 -0.26828,-7.716932 0.77396,-10.160735 1.04211,-2.443837 8.01316,-1.893497 8.76645,1.322312 z"
           id="path4759-5"
           sodipodi:nodetypes="ssszs" />
        <path
           style="fill:#ff0000;stroke-width:24.4311;stroke-linecap:round;stroke-linejoin:round;stroke-dashoffset:3.77953;paint-order:stroke fill markers;fill-opacity:1"
           d="m -204.64851,-31.723126 c -1.22422,2.069751 -9.36736,2.045052 -10.34152,-0.202119 -1.19319,-2.752665 -0.81006,-10.202256 0.12334,-12.415718 0.93326,-2.213495 9.07564,-3.343928 10.69711,0.793414 0.90368,2.305812 0.87506,9.535565 -0.4788,11.824589 z"
           id="path4761-3"
           sodipodi:nodetypes="sszss" />
      </g>
      <path
         style="fill:#ff0000;stroke-width:24.4311;stroke-linecap:round;stroke-linejoin:round;stroke-dashoffset:3.77953;paint-order:stroke fill markers;fill-opacity:1"
         d="m -249.08972,-20.904742 c 1.24605,-6.584703 -5.2695,-11.506185 -11.26733,-8.360984 -5.99783,3.145201 -5.01716,10.579998 -3.87529,18.514008 2.15825,14.9970816 13.95056,24.035661 13.95056,24.035661 0,0 -1.94569,-17.6081316 1.19206,-34.188685 z"
         id="path4765-5"
         sodipodi:nodetypes="szscs" />
      <path
         style="fill:#ff0000;stroke-width:24.4311;stroke-linecap:round;stroke-linejoin:round;stroke-dashoffset:3.77953;paint-order:stroke fill markers;fill-opacity:1"
         d="m -209.32877,29.431272 c -0.79404,-1.342558 -6.07614,-1.326535 -6.70803,0.13131 -0.77397,1.785523 -0.52544,6.617747 0.0801,8.053519 0.60535,1.435771 5.88696,2.169049 6.93874,-0.514704 0.58614,-1.495642 0.56759,-6.185254 -0.31049,-7.670059 z"
         id="path4769-6"
         sodipodi:nodetypes="sszss" />
      <path
         style="fill:#ff0000;stroke-width:24.4311;stroke-linecap:round;stroke-linejoin:round;stroke-dashoffset:3.77953;paint-order:stroke fill markers;fill-opacity:1"
         d="m -226.71472,29.431272 c 0.79408,-1.342558 6.07619,-1.326535 6.70804,0.13131 0.77396,1.785523 0.52547,6.617747 -0.0798,8.053519 -0.60535,1.435771 -5.88699,2.169049 -6.93877,-0.514704 -0.58618,-1.495642 -0.5676,-6.185254 0.31049,-7.670059 z"
         id="path4773-2"
         sodipodi:nodetypes="sszss" />
      <path
         style="fill:#ff0000;stroke-width:24.4311;stroke-linecap:round;stroke-linejoin:round;stroke-dashoffset:3.77953;paint-order:stroke fill markers;fill-opacity:1"
         d="m -204.76732,27.504698 c -2.4946,3.637898 0.12831,8.328872 4.57535,8.021905 4.44707,-0.307167 5.82493,-5.046643 7.2379,-10.12992 2.67089,-9.6085 -2.04143,-18.1777529 -2.04143,-18.1777529 0,0 -3.4904,11.1255519 -9.77182,20.2857679 z"
         id="path4777-9"
         sodipodi:nodetypes="szscs" />
      <path
         style="fill:#ff0000;stroke-width:24.4311;stroke-linecap:round;stroke-linejoin:round;stroke-dashoffset:3.77953;paint-order:stroke fill markers;fill-opacity:1"
         d="m -231.20357,27.514106 c 2.49453,3.637831 -0.12832,8.328838 -4.57539,8.021805 -4.44707,-0.307167 -5.8249,-5.046643 -7.2379,-10.129886 -2.67089,-9.608501 2.0414,-18.1776871 2.0414,-18.1776871 0,0 3.49039,11.1254851 9.77189,20.2857681 z"
         id="path4779-1"
         sodipodi:nodetypes="szscs" />
    </g>
    <g
       id="g6580-2"
       transform="matrix(0.9944888,0,0,0.9944888,-108.73341,-150.81949)"
       style="display:none;stroke-width:3.80047"
       inkscape:label="1">
      <path
         style="fill:#ffffff;stroke-width:7.60095;stroke-linecap:round;stroke-linejoin:round;stroke-dashoffset:3.77953;paint-order:stroke fill markers"
         d="m 134.66084,162.40019 c -0.39205,-2.07179 1.65798,-3.62027 3.54512,-2.63067 1.88714,0.98959 1.57858,3.32885 1.21932,5.82519 -0.67907,4.71863 -4.38936,7.5625 -4.38936,7.5625 0,0 0.61218,-5.54016 -0.37508,-10.75702 z"
         id="path4753-3-7"
         sodipodi:nodetypes="szscs" />
      <path
         style="fill:#ffffff;stroke-width:7.60099;stroke-linecap:round;stroke-linejoin:round;stroke-dashoffset:3.77953;paint-order:stroke fill markers"
         d="m 116.60412,156.97236 c -0.18403,0.78559 -0.18108,2.64586 0.16352,3.23734 0.41677,0.71531 2.80107,0.4595 3.13289,-0.18349 0.33199,-0.64331 0.0927,-2.66635 -0.26743,-3.51074 -0.36006,-0.84439 -2.7687,-0.65424 -3.02898,0.45689 z"
         id="path4755-6-0"
         sodipodi:nodetypes="ssszs" />
      <path
         style="fill:#ffffff;stroke-width:7.60095;stroke-linecap:round;stroke-linejoin:round;stroke-dashoffset:3.77953;paint-order:stroke fill markers"
         d="m 121.21543,159.56179 c 0.41393,0.69984 3.16736,0.69149 3.49674,-0.0684 0.40345,-0.93075 0.27392,-3.44967 -0.0417,-4.1981 -0.31556,-0.74844 -3.06873,-1.13067 -3.61699,0.26828 -0.30556,0.77965 -0.29589,3.22423 0.16189,3.99822 z"
         id="path4757-7-9"
         sodipodi:nodetypes="sszss" />
      <path
         style="fill:#ffffff;stroke-width:7.60095;stroke-linecap:round;stroke-linejoin:round;stroke-dashoffset:3.77953;paint-order:stroke fill markers"
         d="m 134.24519,156.97236 c 0.18403,0.78559 0.18109,2.64585 -0.16353,3.23735 -0.41676,0.7153 -2.80107,0.45949 -3.13288,-0.1835 -0.33198,-0.64331 -0.0927,-2.66635 0.26742,-3.51074 0.36007,-0.8444 2.76871,-0.65424 3.02899,0.45689 z"
         id="path4759-5-3"
         sodipodi:nodetypes="ssszs" />
      <path
         style="fill:#ffffff;stroke-width:7.60095;stroke-linecap:round;stroke-linejoin:round;stroke-dashoffset:3.77953;paint-order:stroke fill markers"
         d="m 129.63388,159.56179 c -0.41394,0.69984 -3.16736,0.69149 -3.49675,-0.0684 -0.40345,-0.93075 -0.27391,-3.44967 0.0417,-4.1981 0.31556,-0.74844 3.06873,-1.13067 3.61699,0.26828 0.30556,0.77965 0.29589,3.22423 -0.16189,3.99822 z"
         id="path4761-3-6"
         sodipodi:nodetypes="sszss" />
      <path
         style="fill:#ffffff;stroke-width:7.60095;stroke-linecap:round;stroke-linejoin:round;stroke-dashoffset:3.77953;paint-order:stroke fill markers"
         d="m 116.18846,162.40019 c 0.39206,-2.07179 -1.65798,-3.62027 -3.54512,-2.63067 -1.88714,0.98959 -1.57858,3.32885 -1.21931,5.82519 0.67907,4.71863 4.38936,7.5625 4.38936,7.5625 0,0 -0.61218,-5.54016 0.37507,-10.75702 z"
         id="path4765-5-0"
         sodipodi:nodetypes="szscs" />
      <path
         style="fill:#ffffff;stroke-width:7.60095;stroke-linecap:round;stroke-linejoin:round;stroke-dashoffset:3.77953;paint-order:stroke fill markers"
         d="m 128.46825,177.4696 c -0.28454,-0.48109 -2.17732,-0.47535 -2.40375,0.0471 -0.27734,0.63982 -0.18829,2.37139 0.0287,2.88588 0.21692,0.51449 2.10952,0.77725 2.48641,-0.18443 0.21004,-0.53595 0.20339,-2.21642 -0.11129,-2.74848 z"
         id="path4769-6-6"
         sodipodi:nodetypes="sszss" />
      <path
         style="fill:#ffffff;stroke-width:7.60095;stroke-linecap:round;stroke-linejoin:round;stroke-dashoffset:3.77953;paint-order:stroke fill markers"
         d="m 122.38107,177.4696 c 0.28455,-0.48109 2.17732,-0.47535 2.40374,0.0471 0.27734,0.63982 0.1883,2.37139 -0.0286,2.88588 -0.21692,0.51449 -2.10953,0.77725 -2.48642,-0.18443 -0.21005,-0.53595 -0.2034,-2.21642 0.1113,-2.74848 z"
         id="path4773-2-2"
         sodipodi:nodetypes="sszss" />
      <path
         style="fill:#ffffff;stroke-width:7.60095;stroke-linecap:round;stroke-linejoin:round;stroke-dashoffset:3.77953;paint-order:stroke fill markers"
         d="m 129.86493,177.26431 c -0.8034,1.1716 0.0413,2.68236 1.47352,2.5835 1.43221,-0.0989 1.87596,-1.6253 2.33101,-3.2624 0.86018,-3.09448 -0.65745,-5.85426 -0.65745,-5.85426 0,0 -1.12411,3.58305 -3.14708,6.53316 z"
         id="path4777-9-6"
         sodipodi:nodetypes="szscs" />
      <path
         style="fill:#ffffff;stroke-width:7.60095;stroke-linecap:round;stroke-linejoin:round;stroke-dashoffset:3.77953;paint-order:stroke fill markers"
         d="m 120.9844,177.26713 c 0.80338,1.17159 -0.0413,2.68236 -1.47353,2.58348 -1.43221,-0.0989 -1.87595,-1.6253 -2.33101,-3.2624 -0.86018,-3.09447 0.65744,-5.85423 0.65744,-5.85423 0,0 1.12411,3.58303 3.1471,6.53315 z"
         id="path4779-1-1"
         sodipodi:nodetypes="szscs" />
    </g>
  </g>
</svg>
